<svg width="20" height="21" viewBox="0 0 20 21" fill="none" xmlns="http://www.w3.org/2000/svg">
<rect opacity="0.01" y="0.5" width="20" height="20" fill="white"/>
<path fill-rule="evenodd" clip-rule="evenodd" d="M10.4688 11.75H9.53125C9.44531 11.75 9.375 11.6797 9.375 11.5938V6.28125C9.375 6.19531 9.44531 6.125 9.53125 6.125H10.4688C10.5547 6.125 10.625 6.19531 10.625 6.28125V11.5938C10.625 11.6797 10.5547 11.75 10.4688 11.75ZM10 14.875C9.48223 14.875 9.0625 14.4553 9.0625 13.9375C9.0625 13.4197 9.48223 13 10 13C10.5178 13 10.9375 13.4197 10.9375 13.9375C10.9375 14.4553 10.5178 14.875 10 14.875Z" fill="white"/>
<path d="M8.69167 3.73785C9.28629 2.75405 10.7137 2.75405 11.3083 3.73785L18.5274 15.6817C19.1429 16.7001 18.4093 18 17.219 18H2.78098C1.59069 18 0.857104 16.7001 1.47265 15.6817L8.69167 3.73785Z" fill="#FFB732"/>
<path d="M9.31863 13.1444H10.5047L10.8041 9.69718L10.8616 8.19531H8.96167L9.01924 9.69718L9.31863 13.1444ZM9.9174 15.8357C10.4931 15.8357 10.9307 15.4627 10.9307 14.9386C10.9307 14.4144 10.4931 14.0516 9.9174 14.0516C9.33014 14.0516 8.89258 14.4144 8.89258 14.9386C8.89258 15.4627 9.31863 15.8357 9.9174 15.8357Z" fill="#1A1D1F"/>
</svg>
